<?xml version="1.0" standalone="no"?>
<!DOCTYPE svg PUBLIC "-//W3C//DTD SVG 20010904//EN"
 "http://www.w3.org/TR/2001/REC-SVG-20010904/DTD/svg10.dtd">
<svg version="1.0" xmlns="http://www.w3.org/2000/svg"
 width="640.000000pt" height="640.000000pt" viewBox="0 0 640.000000 640.000000"
 preserveAspectRatio="xMidYMid meet">
<metadata>
Created by potrace 1.14, written by Peter Selinger 2001-2017
</metadata>
<g transform="translate(0.000000,640.000000) scale(0.100000,-0.100000)"
fill="#000000" stroke="none">
<path d="M2195 5379 c-767 -23 -1373 -82 -1545 -151 -257 -103 -425 -307 -485
-589 -188 -888 -135 -2751 90 -3134 111 -190 303 -335 500 -379 201 -43 562
-75 1220 -107 349 -17 1786 -23 2221 -10 731 23 1225 64 1448 121 265 67 483
284 555 551 38 141 80 428 105 729 69 797 27 1755 -99 2263 -74 301 -289 518
-590 595 -195 50 -724 90 -1505 112 -391 11 -1524 11 -1915 -1z m1210 -1712
c444 -255 807 -467 807 -472 0 -9 -1607 -935 -1623 -935 -5 0 -9 391 -9 935 0
544 4 935 9 935 5 0 372 -208 816 -463z"/>
</g>
</svg>
